HIERARCHY
ROOT ui
{
	 OFFSET 0 0 0
	 CHANNELS 3 XPosition YPosition Z Position
	 EndSite
	 {
	 OFFSET 0 -1 0
	 }
}
ROOT li
{
	 OFFSET 0 0 0
	 CHANNELS 3 XPosition YPosition Z Position
	 EndSite
	 {
	 OFFSET 0 -1 0
	 }
}
ROOT ul
{
	 OFFSET 0 0 0
	 CHANNELS 3 XPosition YPosition Z Position
	 EndSite
	 {
	 OFFSET 0 -1 0
	 }
}
ROOT ll
{
	 OFFSET 0 0 0
	 CHANNELS 3 XPosition YPosition Z Position
	 EndSite
	 {
	 OFFSET 0 -1 0
	 }
}
ROOT tt
{
	 OFFSET 0 0 0
	 CHANNELS 3 XPosition YPosition Z Position
	 EndSite
	 {
	 OFFSET 0 -1 0
	 }
}
ROOT tb
{
	 OFFSET 0 0 0
	 CHANNELS 3 XPosition YPosition Z Position
	 EndSite
	 {
	 OFFSET 0 -1 0
	 }
}
ROOT td
{
	 OFFSET 0 0 0
	 CHANNELS 3 XPosition YPosition Z Position
	 EndSite
	 {
	 OFFSET 0 -1 0
	 }
}
ROOT v
{
	 OFFSET 0 0 0
	 CHANNELS 3 XPosition YPosition Z Position
	 EndSite
	 {
	 OFFSET 0 -1 0
	 }
}
ROOT bn
{
	 OFFSET 0 0 0
	 CHANNELS 3 XPosition YPosition Z Position
	 EndSite
	 {
	 OFFSET 0 -1 0
	 }
}
MOTION
Frames: 16
Frame Time: 0.002
-0.004907647132873535	0.0015003440380096436	0		0.4691573486328125	-2.317914794921875	0		-0.910998046875	0.110716796875	0		-0.5000355529785157	-2.21350146484375	0		1.2076544189453124	-0.4545951538085938	0		2.997899169921875	0.015512303352355957	0		4.3684873046875	0.03350301361083984	0		5.6300634765625	0.1303233337402344	0		-0.19549681091308593	5.9261845703125	0		
0.008222140312194825	-0.012970558166503906	0		0.49605255126953124	-2.319524658203125	0		-0.912627685546875	0.11032004547119141	0		-0.4882550354003906	-2.220048095703125	0		1.2123013916015626	-0.44662722778320313	0		2.9926103515625	0.033070571899414064	0		4.374080078125	0.045165657043457035	0		5.628921875	0.12869723510742187	0		-0.31566339111328123	5.91514599609375	0		
0.011885201454162598	0.0017613290548324585	0		0.47103228759765625	-2.314148193359375	0		-0.909213623046875	0.11285553741455077	0		-0.4873382568359375	-2.217365478515625	0		1.2107806396484375	-0.4465405578613281	0		2.981783935546875	0.022709623336791992	0		4.37245361328125	0.04593370056152344	0		5.63420166015625	0.1284404296875	0		-0.201334228515625	5.92573193359375	0		
0.022389652252197266	0.007383563995361328	0		0.5197650146484375	-2.322126708984375	0		-0.8799183959960938	0.10794298553466797	0		-0.43249795532226565	-2.21865087890625	0		1.2092686767578125	-0.4464524230957031	0		3.01842626953125	0.036460426330566405	0		4.3708408203125	0.04666756820678711	0		5.62893701171875	0.14761082458496094	0		-0.20414768981933593	5.92553125	0		
0.010569388389587403	-0.006572773933410644	0		0.492686279296875	-2.319699462890625	0		-0.9174816284179688	0.10928206634521484	0		-0.46757711791992185	-2.21526220703125	0		1.2077882080078124	-0.4463638916015625	0		2.995602294921875	0.023280656814575196	0		4.36926513671875	0.047365001678466793	0		5.6290498046875	0.11973731994628906	0		-0.20685542297363282	5.92534765625	0		
0.023003480911254884	-0.00995201301574707	0		0.5165187377929688	-2.32418896484375	0		-0.8830360717773438	0.10733962249755859	0		-0.43678262329101564	-2.22105078125	0		1.200215087890625	-0.4541667175292969	0		2.99524853515625	0.03267253875732422	0		4.36774560546875	0.04802459716796875	0		5.630939453125	0.13322679138183594	0		-0.19426025390625	5.9349091796875	0		
-0.007128211975097656	0.007449117183685303	0		0.466638671875	-2.314347412109375	0		-0.9154185180664063	0.11162539672851562	0		-0.4819655456542969	-2.22745654296875	0		1.2149378662109376	-0.4493655090332031	0		2.981519775390625	0.017278335571289063	0		4.36017333984375	0.041753982543945314	0		5.62993359375	0.1346438446044922	0		-0.32810910034179686	5.9130947265625	0		
0.03531161880493164	-0.004427207946777344	0		0.5216355590820313	-2.315362548828125	0		-0.8777297973632813	0.11469213104248047	0		-0.479921142578125	-2.224686767578125	0		1.2226136474609375	-0.45143392944335936	0		3.0006318359375	0.04428911209106445	0		4.3721416015625	0.06110615539550781	0		5.63192529296875	0.14796073913574218	0		-0.19704713439941407	5.93159326171875	0		
-0.006703919887542724	0.010207809448242188	0		0.4647151794433594	-2.314391845703125	0		-0.9180778198242188	0.11116150665283203	0		-0.4717073364257813	-2.21600048828125	0		1.2025025634765625	-0.4460087585449219	0		2.964048583984375	0.027257408142089844	0		4.36365673828125	0.049784278869628905	0		5.62516015625	0.12523971557617186	0		-0.20112841796875	5.93451416015625	0		
0.023893367767333983	-0.0034149460792541504	0		0.5137296142578125	-2.322263916015625	0		-0.888337890625	0.10643095397949219	0		-0.5095716857910156	-2.2154912109375	0		1.2013922119140625	-0.4459139404296875	0		2.968115966796875	0.04150262451171875	0		4.36247900390625	0.0503084716796875	0		5.6209013671875	0.14386807250976563	0		-0.21827670288085937	5.9246796875	0		
-0.0021573009490966797	-0.002033518075942993	0		0.4590103454589844	-2.3183212890625	0		-0.9254008178710937	0.1078867416381836	0		-0.47745513916015625	-2.22117529296875	0		1.20037646484375	-0.4458144226074219	0		2.9777958984375	0.027637691497802735	0		4.3565390625	0.058891864776611326	0		5.62359521484375	0.1275374755859375	0		-0.22009642028808593	5.92460009765625	0		
0.008953733444213867	0.0027243061065673826	0		0.4862877197265625	-2.319782470703125	0		-0.9213358154296875	0.11065647125244141	0		-0.49818212890625	-2.2219248046875	0		1.17747607421875	-0.44433343505859374	0		2.977178955078125	0.04894755935668945	0		4.352525390625	0.05741793441772461	0		5.61944873046875	0.14258155822753907	0		-0.33995147705078127	5.91455908203125	0		
-0.010800195693969726	0.010027289390563965	0		0.46175326538085937	-2.314342041015625	0		-0.9222232055664062	0.11053622436523437	0		-0.4747171630859375	-2.21640771484375	0		1.2116439208984375	-0.44482028198242185	0		2.97106103515625	0.03533858108520508	0		4.36264208984375	0.05768459701538086	0		5.62524462890625	0.14159205627441407	0		-0.20811569213867187	5.93423779296875	0		
0.02019461441040039	-0.003517756938934326	0		0.5131163330078125	-2.32017822265625	0		-0.9230143432617187	0.11043756866455078	0		-0.5092165832519531	-2.212886962890625	0		1.2019442138671874	-0.442550537109375	0		2.981394287109375	0.042448223114013674	0		4.361076171875	0.07113741302490234	0		5.62054248046875	0.16002729797363283	0		-0.20949795532226562	5.93421142578125	0		
-0.005472019195556641	-0.0020877909660339355	0		0.4846538696289063	-2.31965087890625	0		-0.8927837524414063	0.10583744812011718	0		-0.4458702697753906	-2.224001220703125	0		1.1941824951171875	-0.44930941772460936	0		2.98558447265625	0.03565712738037109	0		4.35806298828125	0.05259698867797852	0		5.62006396484375	0.1609509735107422	0		-0.21075021362304688	5.93419970703125	0		
0.01585944652557373	-0.0064360971450805665	0		0.48322970581054686	-2.321571044921875	0		-0.9293703002929687	0.10737831878662109	0		-0.5172096557617187	-2.219835693359375	0		1.1966903076171875	-0.44523373413085937	0		2.9631025390625	0.043310791015625	0		4.36055908203125	0.058955959320068356	0		5.6238076171875	0.14436970520019532	0		-0.2118808898925781	5.9342001953125	0		
